<mxfile host="Electron" agent="Mozilla/5.0 (Windows NT 10.0; Win64; x64) AppleWebKit/537.36 (KHTML, like Gecko) draw.io/24.7.17 Chrome/128.0.6613.36 Electron/32.0.1 Safari/537.36" version="24.7.17">
  <diagram name="Page-1" id="r-dEBROUBnTchHeYTcDO">
    <mxGraphModel dx="1163" dy="729" grid="1" gridSize="10" guides="1" tooltips="1" connect="1" arrows="1" fold="1" page="1" pageScale="1" pageWidth="160" pageHeight="400" math="0" shadow="0">
      <root>
        <mxCell id="0" />
        <mxCell id="1" parent="0" />
        <mxCell id="i09uNnCBUvbFNKMzyFXJ-1" value="Cap" style="rounded=0;whiteSpace=wrap;html=1;gradientColor=none;" parent="1" vertex="1">
          <mxGeometry x="20" y="20" width="120" height="80" as="geometry" />
        </mxCell>
        <mxCell id="i09uNnCBUvbFNKMzyFXJ-3" value="" style="ellipse;whiteSpace=wrap;html=1;aspect=fixed;fillColor=#f8cecc;strokeColor=#b85450;" parent="1" vertex="1">
          <mxGeometry x="40" y="300" width="80" height="80" as="geometry" />
        </mxCell>
        <mxCell id="i09uNnCBUvbFNKMzyFXJ-2" value="" style="rounded=0;whiteSpace=wrap;html=1;fillColor=#f8cecc;strokeColor=#b85450;" parent="1" vertex="1">
          <mxGeometry x="40" y="100" width="80" height="240" as="geometry" />
        </mxCell>
        <mxCell id="i09uNnCBUvbFNKMzyFXJ-5" value="" style="rounded=0;whiteSpace=wrap;html=1;" parent="1" vertex="1">
          <mxGeometry x="40" y="160" width="80" height="120" as="geometry" />
        </mxCell>
        <mxCell id="i09uNnCBUvbFNKMzyFXJ-6" value="" style="ellipse;whiteSpace=wrap;html=1;aspect=fixed;fillColor=#f8cecc;strokeColor=#b85450;" parent="1" vertex="1">
          <mxGeometry x="50" y="190" width="60" height="60" as="geometry" />
        </mxCell>
        <mxCell id="i09uNnCBUvbFNKMzyFXJ-8" value="" style="rounded=0;whiteSpace=wrap;html=1;strokeColor=none;" parent="1" vertex="1">
          <mxGeometry x="60" y="210" width="40" height="20" as="geometry" />
        </mxCell>
        <mxCell id="i09uNnCBUvbFNKMzyFXJ-7" value="" style="rounded=0;whiteSpace=wrap;html=1;strokeColor=none;" parent="1" vertex="1">
          <mxGeometry x="70" y="200" width="20" height="40" as="geometry" />
        </mxCell>
        <mxCell id="iiQquX1BjTii-SbRYT1T-2" value="Bottom" style="text;html=1;align=center;verticalAlign=middle;whiteSpace=wrap;rounded=0;" parent="1" vertex="1">
          <mxGeometry x="47.5" y="340" width="60" height="30" as="geometry" />
        </mxCell>
        <mxCell id="iiQquX1BjTii-SbRYT1T-3" value="Vial" style="text;html=1;align=center;verticalAlign=middle;whiteSpace=wrap;rounded=0;" parent="1" vertex="1">
          <mxGeometry x="50" y="120" width="60" height="30" as="geometry" />
        </mxCell>
        <mxCell id="iiQquX1BjTii-SbRYT1T-4" value="Sticker" style="text;html=1;align=center;verticalAlign=middle;whiteSpace=wrap;rounded=0;" parent="1" vertex="1">
          <mxGeometry x="50" y="170" width="60" as="geometry" />
        </mxCell>
        <mxCell id="iiQquX1BjTii-SbRYT1T-6" value="Cross" style="text;html=1;align=center;verticalAlign=middle;whiteSpace=wrap;rounded=0;" parent="1" vertex="1">
          <mxGeometry x="50" y="220" width="60" as="geometry" />
        </mxCell>
        <mxCell id="iiQquX1BjTii-SbRYT1T-5" value="Circle" style="text;html=1;align=center;verticalAlign=middle;whiteSpace=wrap;rounded=0;fontSize=8;" parent="1" vertex="1">
          <mxGeometry x="49.5" y="195" width="60" as="geometry" />
        </mxCell>
      </root>
    </mxGraphModel>
  </diagram>
</mxfile>
